# xmcd
#
# Track frame offsets:
#	182
#	31060
#	54845
#	69670
#	81855
#	93322
#	106990
#	121870
#	140462
#
# Disc length: 2116 seconds
#
# Revision: 0
# Processed by: cddbd v1.4PL0 Copyright (c) Steve Scherf et al.
# Submitted via: EasyCDDAExtractor 4.6.9.1
#
DISCID=6b084209
DTITLE=Buckwheat Zydeco - On a Night Like This
DYEAR=1987
DGENRE=Blues
TTITLE0=Ma 'Tit Fille
TTITLE1=Buckwheat's Special
TTITLE2=Zydeco Honky Tonk
TTITLE3=Marie Marie
TTITLE4=On a Night Like This
TTITLE5=Time Is Tight
TTITLE6=Space Zydeco
TTITLE7=Hot Tamale baby
TTITLE8=People's Choice
EXTD=
EXTT0=
EXTT1=
EXTT2=
EXTT3=
EXTT4=
EXTT5=
EXTT6=
EXTT7=
EXTT8=
PLAYORDER=
